<?xml version="1.0" encoding="UTF-8"?>
<svg id="_Слой_1" data-name="Слой 1" xmlns="http://www.w3.org/2000/svg" viewBox="0 0 991.76 264.33">
  <defs>
    <style>
      .cls-1 {
        fill: #fff;
      }

      .cls-2 {
        fill: #0e172a;
      }

      .cls-3 {
        fill: #12d3c8;
      }
    </style>
  </defs>
  <g>
    <path class="cls-1" d="M362.38,181.54c-8.84,0-15.64-1.52-20.39-4.55-4.75-3.04-8.25-6.4-10.49-10.1h-3.56v11.88h-24.55V40.2h24.94v51.67h3.56c1.45-2.38,3.4-4.62,5.84-6.73,2.44-2.11,5.67-3.86,9.7-5.25,4.02-1.39,9.01-2.08,14.95-2.08,7.92,0,15.24,1.95,21.98,5.84,6.73,3.89,12.14,9.6,16.23,17.12,4.09,7.52,6.14,16.63,6.14,27.32v3.17c0,10.69-2.05,19.8-6.14,27.32-4.09,7.52-9.5,13.23-16.23,17.12-6.73,3.89-14.06,5.84-21.98,5.84ZM354.86,159.77c7.65,0,14.06-2.47,19.2-7.42,5.15-4.95,7.72-12.17,7.72-21.68v-1.98c0-9.5-2.54-16.73-7.62-21.68-5.08-4.95-11.52-7.42-19.3-7.42s-14.06,2.48-19.2,7.42c-5.15,4.95-7.72,12.18-7.72,21.68v1.98c0,9.5,2.57,16.73,7.72,21.68,5.15,4.95,11.55,7.42,19.2,7.42Z"/>
    <path class="cls-1" d="M452.32,180.36c-7.66,0-14.35-1.75-20.09-5.25-5.74-3.5-10.2-8.34-13.36-14.55-3.17-6.2-4.75-13.33-4.75-21.38v-58.6h24.94v56.62c0,7.39,1.81,12.93,5.44,16.63,3.63,3.7,8.81,5.54,15.54,5.54,7.65,0,13.59-2.54,17.82-7.62,4.22-5.08,6.34-12.18,6.34-21.28v-49.88h24.94v98.19h-24.55v-12.87h-3.56c-1.59,3.3-4.55,6.53-8.91,9.7-4.36,3.17-10.96,4.75-19.8,4.75Z"/>
    <path class="cls-1" d="M563.96,178.77c-6.47,0-11.71-2.01-15.74-6.04-4.03-4.02-6.04-9.4-6.04-16.13v-55.43h-24.55v-20.59h24.55v-30.49h24.94v30.49h26.92v20.59h-26.92v51.07c0,3.96,1.85,5.94,5.54,5.94h19v20.59h-27.72Z"/>
    <path class="cls-1" d="M637.77,181.54c-7,0-13.26-1.22-18.81-3.66-5.54-2.44-9.93-6-13.16-10.69-3.24-4.68-4.85-10.39-4.85-17.12s1.61-12.37,4.85-16.92c3.23-4.55,7.72-7.98,13.46-10.29,5.74-2.31,12.3-3.46,19.7-3.46h26.92v-5.54c0-4.62-1.45-8.41-4.36-11.38-2.91-2.97-7.52-4.45-13.86-4.45s-10.82,1.42-13.86,4.26c-3.04,2.84-5.02,6.5-5.94,10.99l-22.96-7.72c1.59-5.01,4.13-9.6,7.62-13.76,3.49-4.16,8.18-7.52,14.06-10.1,5.87-2.57,13.03-3.86,21.48-3.86,12.93,0,23.16,3.23,30.68,9.7,7.52,6.47,11.28,15.84,11.28,28.11v36.62c0,3.96,1.85,5.94,5.54,5.94h7.92v20.59h-16.63c-4.88,0-8.91-1.19-12.07-3.56-3.17-2.38-4.75-5.54-4.75-9.5v-.2h-3.76c-.53,1.58-1.72,3.66-3.56,6.24-1.85,2.57-4.75,4.85-8.71,6.83-3.96,1.98-9.37,2.97-16.23,2.97ZM642.13,161.35c6.99,0,12.7-1.95,17.12-5.84,4.42-3.89,6.63-9.07,6.63-15.54v-1.98h-25.14c-4.62,0-8.25.99-10.89,2.97-2.64,1.98-3.96,4.75-3.96,8.31s1.39,6.47,4.16,8.71c2.77,2.25,6.8,3.37,12.08,3.37Z"/>
    <path class="cls-1" d="M711.21,178.77V40.2h24.94v76.61h3.56l32.47-36.22h32.47l-45.33,47.51,46.92,50.68h-32.07l-34.45-39h-3.56v39h-24.94Z"/>
    <path class="cls-1" d="M843.8,181.54c-9.77,0-18.54-1.98-26.33-5.94-7.79-3.96-13.93-9.7-18.41-17.22-4.49-7.52-6.73-16.56-6.73-27.12v-3.17c0-10.56,2.24-19.6,6.73-27.12,4.48-7.52,10.62-13.26,18.41-17.22,7.79-3.96,16.56-5.94,26.33-5.94s18.54,1.98,26.33,5.94c7.79,3.96,13.92,9.7,18.41,17.22,4.48,7.52,6.73,16.56,6.73,27.12v3.17c0,10.56-2.25,19.6-6.73,27.12-4.49,7.52-10.63,13.26-18.41,17.22-7.79,3.96-16.56,5.94-26.33,5.94ZM843.8,159.37c7.65,0,13.99-2.47,19-7.42,5.02-4.95,7.52-12.04,7.52-21.28v-1.98c0-9.24-2.47-16.33-7.42-21.28-4.95-4.95-11.32-7.42-19.1-7.42s-13.99,2.47-19,7.42c-5.02,4.95-7.52,12.04-7.52,21.28v1.98c0,9.24,2.5,16.33,7.52,21.28,5.01,4.95,11.35,7.42,19,7.42Z"/>
    <path class="cls-1" d="M920.89,178.77l-31.28-98.19h26.53l22.77,79.97h3.56l22.76-79.97h26.53l-31.28,98.19h-39.59Z"/>
    <g>
      <path class="cls-3" d="M303.39,223.57v-25.37h17.62v3.18h-13.98v7.61h13.74v3.18h-13.74v11.39h-3.64Z"/>
      <path class="cls-3" d="M346.01,223.57l-6.64-9.87h-5.07v9.87h-3.64v-25.37h10.89c5.35,0,8.39,3.41,8.39,7.75s-2.86,7.2-6.87,7.47l7.2,10.15h-4.24ZM346.2,205.95c0-2.68-1.75-4.57-4.98-4.57h-6.92v9.18h6.92c3.32,0,4.98-1.94,4.98-4.61Z"/>
      <path class="cls-3" d="M359.11,210.89c0-7.47,5.21-13.24,13.1-13.24s13.1,5.77,13.1,13.24-5.21,13.24-13.1,13.24-13.1-5.77-13.1-13.24ZM381.62,210.89c0-5.77-3.69-10.06-9.41-10.06s-9.41,4.29-9.41,10.06,3.69,10.05,9.41,10.05,9.41-4.34,9.41-10.05Z"/>
      <path class="cls-3" d="M418.2,223.57v-20.48l-8.72,20.48h-1.57l-8.72-20.48v20.48h-3.64v-25.37h4.94l8.16,19.33,8.21-19.33h4.94v25.37h-3.6Z"/>
      <path class="cls-3" d="M448.6,210.84c0-7.8,5.86-13.19,13.56-13.19,4.52,0,7.89,2.12,10.05,5.21l-2.91,1.61c-1.52-2.21-4.2-3.64-7.15-3.64-5.58,0-9.87,4.15-9.87,10.01s4.29,10.1,9.87,10.1c2.95,0,5.72-1.48,7.15-3.64l2.95,1.61c-2.26,3.09-5.58,5.21-10.1,5.21-7.7,0-13.56-5.44-13.56-13.28Z"/>
      <path class="cls-3" d="M480.06,210.89c0-7.47,5.21-13.24,13.1-13.24s13.1,5.77,13.1,13.24-5.21,13.24-13.1,13.24-13.1-5.77-13.1-13.24ZM502.57,210.89c0-5.77-3.69-10.06-9.41-10.06s-9.41,4.29-9.41,10.06,3.69,10.05,9.41,10.05,9.41-4.34,9.41-10.05Z"/>
      <path class="cls-3" d="M516.5,223.57v-25.37h9.22c8.3,0,13.51,5.53,13.51,12.73s-5.21,12.64-13.51,12.64h-9.22ZM535.51,210.94c0-5.3-3.37-9.55-9.78-9.55h-5.58v19h5.58c6.32,0,9.78-4.24,9.78-9.46Z"/>
      <path class="cls-3" d="M549.48,223.57v-25.37h17.62v3.18h-13.98v7.61h13.74v3.18h-13.74v8.21h13.98v3.18h-17.62Z"/>
      <path class="cls-3" d="M599.76,223.57v-22.19h-7.89v-3.18h19.33v3.18h-7.84v22.19h-3.6Z"/>
      <path class="cls-3" d="M617.85,210.89c0-7.47,5.21-13.24,13.1-13.24s13.1,5.77,13.1,13.24-5.21,13.24-13.1,13.24-13.1-5.77-13.1-13.24ZM640.35,210.89c0-5.77-3.69-10.06-9.41-10.06s-9.41,4.29-9.41,10.06,3.69,10.05,9.41,10.05,9.41-4.34,9.41-10.05Z"/>
      <path class="cls-3" d="M669.55,210.84c0-7.8,5.86-13.19,13.56-13.19,4.52,0,7.89,2.12,10.05,5.21l-2.91,1.61c-1.52-2.21-4.2-3.64-7.15-3.64-5.58,0-9.87,4.15-9.87,10.01s4.29,10.1,9.87,10.1c2.95,0,5.72-1.48,7.15-3.64l2.95,1.61c-2.26,3.09-5.58,5.21-10.1,5.21-7.7,0-13.56-5.44-13.56-13.28Z"/>
      <path class="cls-3" d="M701.01,210.89c0-7.47,5.21-13.24,13.1-13.24s13.1,5.77,13.1,13.24-5.21,13.24-13.1,13.24-13.1-5.77-13.1-13.24ZM723.52,210.89c0-5.77-3.69-10.06-9.41-10.06s-9.41,4.29-9.41,10.06,3.69,10.05,9.41,10.05,9.41-4.34,9.41-10.05Z"/>
      <path class="cls-3" d="M756.04,223.57l-14.99-19.74v19.74h-3.6v-25.37h3.78l14.85,19.37v-19.37h3.6v25.37h-3.64Z"/>
      <path class="cls-3" d="M778.83,223.57l-10.75-25.37h4.11l8.81,21.36,8.81-21.36h4.01l-10.7,25.37h-4.29Z"/>
      <path class="cls-3" d="M802.22,223.57v-25.37h17.62v3.18h-13.98v7.61h13.75v3.18h-13.75v8.21h13.98v3.18h-17.62Z"/>
      <path class="cls-3" d="M845.67,223.57l-6.64-9.87h-5.07v9.87h-3.64v-25.37h10.89c5.35,0,8.39,3.41,8.39,7.75s-2.86,7.2-6.87,7.47l7.2,10.15h-4.24ZM845.85,205.95c0-2.68-1.75-4.57-4.98-4.57h-6.92v9.18h6.92c3.32,0,4.98-1.94,4.98-4.61Z"/>
      <path class="cls-3" d="M858.08,220.16l1.94-2.72c1.71,1.84,4.7,3.55,8.3,3.55,4.43,0,6.18-2.08,6.18-4.34,0-6.46-15.59-2.63-15.59-11.81,0-4.2,3.97-7.2,9.18-7.2,4.15,0,7.29,1.38,9.5,3.64l-1.89,2.54c-1.94-2.08-4.84-3.04-7.61-3.04-3.18,0-5.44,1.66-5.44,4.01,0,5.49,15.54,2.12,15.54,11.72,0,4.29-3.18,7.61-9.96,7.61-4.47,0-8.07-1.71-10.15-3.97Z"/>
      <path class="cls-3" d="M887.92,223.57v-25.37h3.64v25.37h-3.64Z"/>
      <path class="cls-3" d="M901.81,210.89c0-7.47,5.21-13.24,13.1-13.24s13.1,5.77,13.1,13.24-5.21,13.24-13.1,13.24-13.1-5.77-13.1-13.24ZM924.32,210.89c0-5.77-3.69-10.06-9.41-10.06s-9.41,4.29-9.41,10.06,3.69,10.05,9.41,10.05,9.41-4.34,9.41-10.05Z"/>
      <path class="cls-3" d="M956.84,223.57l-14.99-19.74v19.74h-3.6v-25.37h3.78l14.85,19.37v-19.37h3.6v25.37h-3.64Z"/>
    </g>
  </g>
  <g>
    <rect class="cls-2" x="0" y="0" width="264.33" height="264.33" rx="132.16" ry="132.16"/>
    <g>
      <path class="cls-3" d="M178.77,139.7h0c0,24.81-20.11,44.93-44.92,44.93h-1.66c-24.81,0-44.92-20.11-44.92-44.92v-60.06h-33.61s0,58.42,0,58.42c0,43.37,35.16,78.54,78.54,78.54h0c38.54,0,70.6-27.76,77.26-64.38l-30.68-12.51Z"/>
      <path class="cls-3" d="M145.66,47.73l-14.11,31.9h47.22v60.06h0c18.95-5.76,31.9-23.24,31.9-43.05v-3.93c0-24.85-20.14-44.99-44.99-44.99h-20.02Z"/>
    </g>
  </g>
</svg>